# xmcd
#
# Track frame offsets:
#	150
#	10242
#	24106
#	35483
#	48924
#	62015
#	76589
#	91341
#	106051
#	115134
#	128684
#	141017
#	160414
#	174711
#	190090
#	203081
#	216532
#	228959
#	239735
#	251149
#	265065
#	279822
#	293210
#	306975
#	318519
#	329677
#
# Disc length: 4543 seconds
#
# Revision: 1
# Processed by: cddbd v1.5.2PL0 Copyright (c) Steve Scherf et al.
# Submitted via: audiograbber 1.83.01
#
DISCID=6e11bd1a
DTITLE=Various Artist -  Longines Symphonette Society - Those Memory Years - C
DTITLE=D 2
DYEAR=1999
DGENRE=Oldies
TTITLE0=Guy Lombardo - Happy days are here again (instrumental)
TTITLE1=The Ink Spots - Maybe
TTITLE2=Mary Martin - My heart belongs to daddy
TTITLE3=Guy Lombardo - Blue Tango
TTITLE4=Ella Fitzgerald - I was doing all right
TTITLE5=The four Aces - It's no sin
TTITLE6=Les Brown feat. Ames Brothers - Sentimental journey
TTITLE7=Billy Holiday - Lover man
TTITLE8=Ethel Smith - Ticoo tic
TTITLE9=Count Basie - One 'o clock jump
TTITLE10=Johnny Long - When I take my sugar to tee
TTITLE11=Louis Armstrong - When the saints go marching in
TTITLE12=Woody Herman - Woodchopper's Ball
TTITLE13=The Modernaires - Chattanooga Choo Choo
TTITLE14=The Ames Brothers - Undecided
TTITLE15=Pearl Bailey - Birth of the Blues
TTITLE16=Clyde McCoy - Sugar Blues
TTITLE17=Deanna Durbin - becaus
TTITLE18=Glenn Miller - Peg of my heart
TTITLE19=Wayne King - Melody of love
TTITLE20=Peggy Lee - Lover
TTITLE21=Nat King Cole - Sweet Loraine
TTITLE22=Connie Boswell feat. Bob Crosby - Martha
TTITLE23=The four Aces - Mr. Sandman
TTITLE24=Ben Bernie - Au revoire, pleasant dreams
TTITLE25=Guy Lombardo - Auld Lang Syne
EXTD=
EXTT0=
EXTT1=
EXTT2=
EXTT3=
EXTT4=
EXTT5=
EXTT6=
EXTT7=
EXTT8=
EXTT9=
EXTT10=
EXTT11=
EXTT12=
EXTT13=
EXTT14=
EXTT15=
EXTT16=
EXTT17=
EXTT18=
EXTT19=
EXTT20=
EXTT21=
EXTT22=
EXTT23=
EXTT24=
EXTT25=
PLAYORDER=
